HIERARCHY
ROOT Hips
{
	OFFSET 0.000000 95.729000 0.000000
	CHANNELS 6 Xposition Yposition Zposition Yrotation Xrotation Zrotation
	JOINT RightUpLeg
	{
		OFFSET -9.625000 -1.639000 0.000000
		CHANNELS 3 Yrotation Xrotation Zrotation
		JOINT RightLeg
		{
			OFFSET 0.000000 -41.481000 0.000000
			CHANNELS 3 Yrotation Xrotation Zrotation
			JOINT RightFoot
			{
				OFFSET 0.000000 -43.120000 0.000000
				CHANNELS 3 Yrotation Xrotation Zrotation
				End Site
				{
					OFFSET 0.000000 -7.850000 17.850000
				}
			}
		}
	}
	JOINT LeftUpLeg
	{
		OFFSET 9.625000 -1.639000 0.000000
		CHANNELS 3 Yrotation Xrotation Zrotation
		JOINT LeftLeg
		{
			OFFSET 0.000000 -43.120000 0.000000
			CHANNELS 3 Yrotation Xrotation Zrotation
			JOINT LeftFoot
			{
				OFFSET 0.000000 -43.120000 0.000000
				CHANNELS 3 Yrotation Xrotation Zrotation
				End Site
				{
					OFFSET 0.000000 -7.850000 17.850000
				}
			}
		}
	}
	JOINT Spine
	{
		OFFSET 0.000000 16.395000 0.000000
		CHANNELS 3 Yrotation Xrotation Zrotation
		JOINT Spine1
		{
			OFFSET 0.000000 10.023000 0.000000
			CHANNELS 3 Yrotation Xrotation Zrotation
			JOINT Spine2
			{
				OFFSET 0.000000 10.437000 0.000000
				CHANNELS 3 Yrotation Xrotation Zrotation
				JOINT Spine3
				{
					OFFSET 0.000000 10.023000 0.000000
					CHANNELS 3 Yrotation Xrotation Zrotation
					JOINT Neck
					{
						OFFSET 0.000000 10.713000 0.000000
						CHANNELS 3 Yrotation Xrotation Zrotation
						JOINT Head
						{
							OFFSET 0.000000 9.720000 0.000000
							CHANNELS 3 Yrotation Xrotation Zrotation
							End Site
							{
								OFFSET 0.000000 16.450000 0.000000
							}
						}
					}
					JOINT RightShoulder
					{
						OFFSET -3.275000 7.142000 0.000000
						CHANNELS 3 Yrotation Xrotation Zrotation
						JOINT RightArm
						{
							OFFSET -13.100000 0.000000 0.000000
							CHANNELS 3 Yrotation Xrotation Zrotation
							JOINT RightForeArm
							{
								OFFSET -27.250000 0.000000 0.000000
								CHANNELS 3 Yrotation Xrotation Zrotation
								JOINT RightHand
								{
									OFFSET -26.750000 0.000000 0.000000
									CHANNELS 3 Yrotation Xrotation Zrotation
									End Site
									{
										OFFSET -3.479000 0.532000 0.778000
									}
								}
							}
						}
					}
					JOINT LeftShoulder
					{
						OFFSET 3.275000 7.142000 0.000000
						CHANNELS 3 Yrotation Xrotation Zrotation
						JOINT LeftArm
						{
							OFFSET 13.100000 0.000000 0.000000
							CHANNELS 3 Yrotation Xrotation Zrotation
							JOINT LeftForeArm
							{
								OFFSET 27.250000 0.000000 0.000000
								CHANNELS 3 Yrotation Xrotation Zrotation
								JOINT LeftHand
								{
									OFFSET 26.750000 0.000000 0.000000
									CHANNELS 3 Yrotation Xrotation Zrotation
									End Site
									{
										OFFSET 3.479000 0.532000 0.778000
									}
								}
							}
						}
					}
				}
			}
		}
	}
}
MOTION
Frames: 18
Frame Time: 0.010000
39.03 94.69 39.5 -152.07 3.64 -1.26 5.69 -15.07 -0.83 -0.0 25.55 -0.0 -9.49 -12.52 2.17 20.92 -14.91 -0.5 0.0 28.55 0.0 0.58 -14.95 -1.37 7.77 3.28 -2.81 1.94 0.87 -0.74 3.18 1.53 -1.21 -0.23 0.36 0.47 -0.23 0.37 0.47 -3.12 7.03 8.3 21.64 -7.3 -26.17 83.6 -64.07 -19.15 11.07 40.29 -29.07 5.33 5.87 -40.19 4.2 2.76 -9.91 -19.02 -3.08 -64.43 -12.39 43.79 -5.84 1.73 -14.07 13.35
38.66 94.91 39.77 -152.59 4.33 -1.51 4.98 -17.04 -0.34 0.0 27.3 0.0 -10.5 -13.62 3.65 21.01 -15.2 -0.77 0.0 27.85 -0.0 0.69 -14.45 -1.52 7.2 3.6 -2.71 1.79 0.95 -0.72 2.94 1.66 -1.17 -0.2 0.33 0.46 -0.2 0.33 0.46 -2.72 6.32 8.27 21.78 -7.66 -26.82 83.22 -64.5 -20.01 9.44 36.85 -28.85 4.12 5.48 -40.54 4.9 2.23 -10.18 -18.92 -2.11 -64.08 -11.8 43.34 -5.3 1.15 -14.24 12.94
38.26 95.16 40.01 -152.78 5.03 -1.76 2.7 -19.43 0.8 -0.0 30.16 0.0 -9.74 -14.83 4.26 20.79 -15.59 -1.02 0.0 27.22 0.0 0.66 -13.57 -1.5 7.29 3.16 -2.65 1.82 0.84 -0.7 2.99 1.47 -1.14 -0.29 0.35 0.49 -0.29 0.35 0.49 -4.24 7.02 8.67 19.68 -7.27 -25.92 82.05 -66.14 -19.48 8.01 32.63 -27.97 4.47 5.19 -41.56 4.12 3.5 -10.02 -18.75 -1.62 -63.51 -11.26 43.07 -4.7 0.31 -14.56 12.98
37.97 95.22 40.08 -152.64 5.72 -1.8 1.17 -22.02 1.92 0.0 33.44 0.0 -8.84 -15.57 6.21 20.39 -16.22 -1.23 -0.0 27.26 -0.0 0.63 -12.21 -1.37 6.01 5.19 -2.34 1.49 1.34 -0.63 2.44 2.3 -1.03 -0.33 0.18 0.5 -0.33 0.18 0.5 -5.44 4.1 8.85 17.97 -11.92 -24.78 80.05 -67.31 -15.23 6.89 30.32 -27.16 5.26 5.07 -43.0 4.89 2.27 -11.01 -18.46 -2.58 -62.58 -11.24 42.56 -4.29 -0.04 -14.7 13.19
37.94 94.82 40.2 -152.3 6.46 -1.66 -0.15 -24.17 2.59 0.0 36.14 0.0 -8.18 -15.38 8.52 19.82 -17.1 -1.46 0.0 27.21 0.0 0.66 -11.06 -1.31 5.65 5.64 -2.31 1.4 1.46 -0.63 2.29 2.48 -1.02 -0.47 0.13 0.52 -0.47 0.14 0.52 -8.0 3.72 9.22 16.13 -13.85 -22.98 79.62 -67.16 -13.07 3.64 28.98 -26.85 8.26 5.38 -45.14 5.12 1.87 -11.32 -18.61 -2.48 -62.11 -11.33 42.41 -4.08 -0.49 -14.76 13.55
37.97 93.89 40.24 -152.16 6.68 -1.61 -0.94 -26.21 3.37 -0.0 39.18 -0.0 -7.65 -12.61 8.89 18.75 -19.32 -0.92 0.0 32.05 0.0 0.67 -8.9 -0.75 5.65 6.61 -2.06 1.4 1.7 -0.57 2.29 2.89 -0.93 -0.62 0.07 0.53 -0.63 0.07 0.53 -10.98 3.15 9.45 15.04 -14.11 -22.5 62.42 -71.12 3.34 6.67 29.85 -25.82 6.77 4.64 -44.49 5.54 0.96 -11.53 -19.22 -2.09 -61.78 -11.79 42.62 -3.9 -0.91 -14.82 14.45
38.44 94.74 39.25 -150.84 9.24 -1.89 -3.56 -30.34 4.9 -0.0 43.01 -0.0 -7.78 -13.86 7.96 16.8 -25.75 -0.54 -0.0 38.75 -0.0 0.45 -7.01 -0.32 5.26 6.3 -1.54 1.31 1.62 -0.44 2.15 2.74 -0.71 -0.76 -0.05 0.53 -0.76 -0.04 0.53 -13.72 1.63 9.56 13.46 -13.16 -22.3 50.2 -72.56 14.76 4.39 28.25 -23.99 9.14 4.92 -45.93 5.33 -0.29 -11.94 -19.5 -1.55 -61.33 -13.0 43.06 -3.78 -1.04 -14.84 15.55
38.96 90.32 38.58 -150.97 10.64 -1.87 -3.98 -34.7 5.74 0.0 48.76 -0.0 -8.08 -16.98 8.11 16.61 -30.45 -0.2 -0.0 45.44 -0.0 0.84 -6.14 0.15 5.28 5.47 -1.67 1.32 1.41 -0.46 2.17 2.39 -0.75 -0.8 -0.07 0.53 -0.81 -0.06 0.53 -14.6 1.38 9.57 12.44 -11.44 -20.61 40.84 -71.92 24.45 6.2 28.16 -24.31 7.35 4.64 -44.16 5.76 0.2 -11.75 -19.46 -1.29 -60.54 -14.59 43.37 -4.14 -0.93 -14.75 16.41
39.96 89.39 38.63 -151.0 13.07 -1.69 -5.75 -38.89 6.9 0.0 51.59 0.0 -7.22 -17.72 8.01 14.76 -40.77 0.03 -0.0 60.11 -0.0 1.5 -7.72 0.66 6.46 6.16 -1.2 1.62 1.59 -0.36 2.67 2.7 -0.58 -0.89 -0.31 0.49 -0.89 -0.3 0.49 -16.8 -2.6 9.36 9.39 -12.34 -19.88 29.32 -70.78 36.77 2.04 25.27 -22.31 10.81 5.17 -46.81 5.02 -0.56 -12.68 -20.38 -2.37 -58.93 -17.46 43.96 -4.81 -0.62 -14.43 17.7
41.78 85.12 38.76 -150.6 15.49 -1.49 -11.33 -48.53 10.88 -0.0 64.51 -0.0 -5.97 -19.93 7.48 11.32 -48.11 1.01 0.0 69.03 0.0 2.12 -6.31 1.25 6.59 5.45 -1.13 1.66 1.41 -0.34 2.74 2.4 -0.54 -0.87 -0.41 0.45 -0.88 -0.4 0.45 -16.73 -4.62 8.91 7.12 -10.71 -17.51 21.74 -69.24 45.49 0.86 23.61 -21.23 16.18 7.18 -51.66 4.74 0.82 -12.56 -20.48 -3.6 -57.41 -20.38 44.3 -5.38 -0.21 -14.23 18.92
43.45 81.1 39.14 -150.12 17.41 -1.49 -17.47 -56.19 16.31 0.0 74.5 0.0 -5.45 -21.0 6.55 7.96 -54.8 2.42 -0.0 76.87 -0.0 1.57 -5.42 2.13 7.32 5.81 -0.34 1.85 1.5 -0.15 3.07 2.54 -0.23 -0.92 -0.56 0.38 -0.92 -0.56 0.38 -17.72 -7.44 8.16 4.44 -10.18 -16.81 18.53 -68.23 49.41 -0.64 22.24 -19.51 11.94 5.78 -47.43 2.93 0.33 -13.21 -20.66 -4.97 -56.93 -21.34 44.12 -5.12 0.06 -14.05 19.83
45.0 77.36 39.41 -149.98 17.75 -1.4 -21.96 -61.45 21.5 0.0 82.56 0.0 -6.76 -21.71 6.73 3.02 -62.71 6.01 0.0 89.4 0.0 1.05 -5.79 2.73 7.78 6.3 -0.0 1.97 1.63 -0.08 3.28 2.75 -0.1 -0.78 -0.64 0.3 -0.79 -0.64 0.3 -15.18 -9.63 6.75 2.78 -6.52 -15.65 14.89 -68.19 53.8 -0.51 21.6 -19.24 9.47 5.66 -43.51 1.12 1.75 -12.9 -20.69 -6.12 -54.6 -24.13 43.31 -6.23 0.21 -13.82 20.85
46.24 72.26 39.4 -149.98 17.99 -1.28 -30.97 -66.95 30.65 -180.0 87.39 -180.0 -7.55 -22.92 6.63 -2.72 -69.19 11.18 180.0 81.07 180.0 1.05 -4.9 2.98 8.3 7.85 0.46 2.11 2.04 0.01 3.52 3.43 0.06 -0.67 -0.75 0.21 -0.67 -0.74 0.21 -12.82 -12.09 5.14 2.38 -4.99 -15.15 13.84 -67.4 56.54 -6.83 20.52 -14.17 11.93 6.66 -46.92 -0.89 1.05 -12.94 -21.15 -7.52 -52.53 -25.99 42.97 -7.06 0.35 -14.43 20.98
47.08 68.1 39.33 -150.42 19.02 -0.68 -40.07 -71.23 40.65 -180.0 80.29 -180.0 -8.53 -25.71 6.09 -7.77 -74.24 16.17 180.0 74.24 180.0 0.93 -5.89 2.17 8.88 7.91 0.15 2.25 2.06 -0.08 3.76 3.48 -0.08 -0.58 -0.79 0.15 -0.59 -0.78 0.15 -11.11 -13.2 3.93 3.05 -1.84 -14.97 16.41 -67.05 55.47 -9.21 20.53 -12.67 11.78 7.29 -46.24 -1.69 0.05 -13.21 -22.09 -7.14 -50.83 -27.47 43.13 -7.66 -0.1 -13.2 23.15
47.63 61.88 39.28 -150.32 18.69 -0.12 -61.23 -76.3 62.62 -180.0 69.07 -180.0 -9.3 -23.58 7.42 -19.7 -78.91 27.29 -180.0 66.73 -180.0 0.18 -3.71 2.8 9.22 8.76 0.08 2.34 2.29 -0.11 3.91 3.87 -0.13 -0.5 -0.8 0.06 -0.5 -0.8 0.06 -9.14 -13.9 2.19 4.55 0.21 -13.87 20.86 -66.45 51.18 -11.08 22.71 -8.46 11.59 7.75 -45.64 -4.45 2.16 -12.18 -21.75 -10.93 -49.43 -28.87 43.99 -7.95 -0.35 -12.64 24.27
48.28 57.46 39.16 -149.71 17.89 -0.21 -79.87 -77.16 82.09 180.0 62.12 180.0 -9.88 -23.44 8.99 -52.32 -81.76 59.62 180.0 57.79 180.0 -1.21 -4.66 2.6 9.2 9.4 0.55 2.34 2.46 -0.0 3.92 4.13 0.05 -0.41 -0.82 -0.02 -0.41 -0.82 -0.02 -7.28 -14.53 0.6 6.25 0.01 -11.71 29.29 -61.55 50.0 -12.42 23.05 -10.46 10.78 8.1 -44.5 -5.39 2.54 -11.5 -23.26 -13.01 -47.59 -31.66 43.19 -9.41 0.25 -12.05 25.27
48.87 53.88 39.09 -149.1 16.73 0.14 -93.07 -76.38 95.69 180.0 56.88 180.0 -11.22 -23.71 9.11 -74.12 -81.53 81.33 180.0 52.83 180.0 -2.83 -4.79 2.76 8.86 10.1 0.61 2.26 2.63 0.01 3.78 4.42 0.08 -0.34 -0.85 -0.05 -0.34 -0.85 -0.05 -5.8 -15.13 -0.13 8.05 -0.03 -10.1 35.91 -58.43 47.57 -12.28 25.34 -10.51 9.85 8.22 -43.12 -5.46 2.57 -11.48 -24.75 -14.13 -46.33 -33.59 43.02 -10.13 1.27 -11.61 26.0
49.12 49.13 38.94 -147.95 15.02 -0.11 -108.22 -73.38 110.03 -180.0 49.86 -180.0 -11.64 -21.73 7.4 -94.95 -78.66 102.4 180.0 47.05 180.0 -5.33 -5.29 2.73 9.87 10.88 1.56 2.53 2.85 0.22 4.26 4.77 0.43 -0.41 -0.9 -0.09 -0.41 -0.9 -0.09 -6.89 -16.06 -0.67 8.26 -0.48 -8.62 43.02 -54.86 45.87 -14.09 25.32 -13.23 12.74 12.07 -39.98 -8.04 2.69 -10.93 -26.39 -16.16 -45.35 -36.33 42.34 -11.01 3.16 -11.06 26.52
